<?xml version="1.0" encoding="utf-8"?>
<!-- Generator: Adobe Illustrator 24.0.1, SVG Export Plug-In . SVG Version: 6.00 Build 0)  -->
<svg version="1.1" id="Capa_1" xmlns="http://www.w3.org/2000/svg" xmlns:xlink="http://www.w3.org/1999/xlink" x="0px" y="0px"
	 viewBox="0 0 756 673" style="enable-background:new 0 0 756 673;" xml:space="preserve">
<style type="text/css">
	.st0{fill:#1D1D1B;}
</style>
<path class="st0" d="M227.3,307.7c0.4-0.1,0.7-0.1,1.1-0.2C228.4,307.2,227.9,307.4,227.3,307.7z M261.1,256.9
	c0.2-0.2,0.4-0.5,0.4-0.7L261.1,256.9z M172.2,294.3c1.2-0.4,2.4-0.9,3.7-1.9C174.1,293.3,172.9,293.9,172.2,294.3z M172.2,294.3
	c-2.3,0.8-4.5,0.9-7.1,2.6c-1.5,0.3,1.7-1.7-1.7-0.3c-2.7,1.9,2.3,0.9,7.8-1.1c0.1,0,0.2,0,0.3,0C171.2,295.3,171.2,295,172.2,294.3
	z M171.5,295.5c0.1,0.1,0.3,0.1,0.5,0.2C172.1,295.5,172,295.4,171.5,295.5z M67.4,363.9c0,0.5,0.2,1.7,0.6,3.9
	C67.8,366.1,67.6,364.9,67.4,363.9z M289.2,215.5c0.4-1,0.9-2,1.5-2.7C290,213.7,289.5,214.6,289.2,215.5z M104.2,424.5
	c-0.3-0.2-0.7-0.4-1.2-0.6C103.4,424.1,103.8,424.3,104.2,424.5z M178.4,292.8c0.7-0.6,0.3-0.7,2.1-1.5c-1.5,0.3-3,1.5-4.7,2.2
	C176.3,293.4,178.3,293.1,178.4,292.8z M142,308.4l12.4-6.8C149.9,303.7,142.4,307.7,142,308.4z M107.3,318.4
	c0.8-0.5,2.1-1.1,1.7-1.3C104.8,318.5,104,319,107.3,318.4z M99.6,322c-0.2,0-0.5,0.1-0.7,0.1C99,322.2,99.2,322.1,99.6,322z
	 M99.6,322c1.4-0.3,2.9-0.6,5.5-1.5C105.7,319.4,101.4,321.4,99.6,322z M74.7,389.7c-1.4-1,2.8,5.3,3.6,7.5
	C77.8,395.1,75.6,391.6,74.7,389.7z M102.7,422.2c-1.3-0.8-1.7-1.1-2.6-2l0.5,1.3C102.2,422.7,104.4,423.8,102.7,422.2z
	 M494.9,235.4l-3.7,1.7l3.3-1L494.9,235.4z M203.6,310c0.7,0-0.5,1,3.4,0.3C202.4,310.8,207.1,309.6,203.6,310z M20.5,559.5
	c-1.8,0.3-2.7,1-3.3,1.7C23.6,559.3,15.3,561.7,20.5,559.5z M44.9,549.1c0.2-0.2,0.4-0.4,0.7-0.5C45.2,548.8,45,549,44.9,549.1z
	 M377.6,2.8c0.1,0,0.3,0,0.4,0.1c0.6,0,1.3,0,1.9,0C379,2.7,378.5,2.7,377.6,2.8z M29.2,557.8c2.6-2-1.2-0.8-2.5-0.8
	C26.5,557.6,28.6,557.4,29.2,557.8z M452.2,331.9c-1.1-0.5-1.8-0.3-2.3,0C453.9,333.2,448.6,331.5,452.2,331.9z M706.2,609.5
	c-0.4,0.1-0.9,0.3-1.3,0.4C705.4,609.9,705.7,609.8,706.2,609.5z M748.1,542.9c-2.2-8.9-5-19-11-26.8c-1.2-1.4-0.8,0.1-1.7-1
	c-1.3-2.1,0.6-0.3,0.3-1.3c-3.4-3.5-6.1-9.1-9.9-13.7c-0.7-0.3-1.8-1.5-1.8-0.8c-2.8-5.8-10.5-11.5-14.5-16.8c0.4,2.9-3.5-2-5.6-3.2
	c-0.9-0.9-0.7-1.4-0.2-1.4c-3.9-3.2-5.9-4.7-10.2-8.9c-2.3-1.5-3.5-1.2-5.9-3.4c-0.9-2.2-5.5-4.1-7.9-6.3c0,1.3-3.8-0.2-6.2-2.4
	l1.7-0.7c-9-4.9-20.4-14.1-31.5-18.5l-0.3-1.2c-11-5.4-20.6-12.4-31.2-17.2c-2.4-2.1-6.3-5.1-9-6.8c-4-1.7-5.3-2.6-8.4-3.2
	c-1.4-0.8-1.8-1.9-2.2-2.5c-4.4-3-8.2-6.8-12.6-7.7l0.2-0.7c-4.1-1.5-9.8-3.8-13.5-7c-1.5-0.1-5.7-2.3-4.3-0.4
	c-1.7-0.8-0.4-1.7-2.5-2l2.1,0c-9.1-5.7-17.1-9.8-26.1-15c-1.9-2.7-8.1-5.4-12.6-9.4c-3.2-1.3-7.5-5.6-10.5-5.8l0.3-0.7
	c-3.7-2.8-8.8-6.4-13.9-9.9c-3-2-3.6-1-6.2-2.1l0.2-0.8c-2.8-1-4-0.5-5.3-0.2c-0.4-0.2-0.9-0.4-1.3-0.6c-1.1-0.7-1.7-0.7-3.3-1.8
	c2.3,0.5,4.3,0.7,6.2,0.4c-3.3-2-7.6-1.7-9.3-3.7c-2.8-1.3-5.2-1.9-5.9-1.2c-0.1-0.3-1.6-1-0.1-1c-2.3-0.7-3.7-1.1-5.2-1.1
	c0.4,0.1,1,0.4,1.5,0.6c-1.2,0.3-3-0.1-3.3,0.6c-0.9-0.3-1.9-0.5-2.9-0.8c0.1-0.7,2.9-0.4,1.4-1.2c-1.8,0-3.5,0.2-5.3,0.3
	c-3.4-0.8-7-1.5-10.8-2.1c-20.5-3.3-20.5-1.6-43.4,3.6c0.1-0.5,2.7-0.7,3.6-1.1l9.7-2.2c6.5-1.5,12.9-2.4,18.7-3.2
	c9,0.2,12.2-2.3,12.2-2.4c-10.2-1.5-22.6-2-32.5,0.7l-7.4,1.4l-3.7,0.6l-1.8,0.3l-0.5,0.1l-0.1,0l0,0c0.6,5.2-1.3-11.7,1.3,11.7l0,0
	l0.1,0l0.6,0.1c3.4,0.7,8.5,2.9,13.3,4.7c6,2.1,17.9,3.8,21.1,6.4c24,10.2,41.1,31.7,58.3,52.5c-0.5-1.4,0.8-0.5,1.8,0.5l-0.1,0.5
	l1.9,1.3c1.3,1.6,0,1.5-1.2,0.2c6.5,8.7,12.2,16.8,17.9,25.9c1.4,0,3,4.7,4.3,4.4c0.1,0.5-0.2,0.2-0.6,0.1c4.5,6,4.8,6.4,7.1,13
	c13.7,26.1,32.9,48.3,42.7,73.5c2.6,6.3,4.9,12.8,5.7,18.7c0.3,2.8,0.1,5.5-0.3,6.5c-0.2,0.4-0.4,0.5-0.6,0.8
	c-1.7,1-3.7,2.2-5.5,3.6c-1.9,1.6-3.9,3.2-5.6,6.6c-1.8,3.2-1.7,8.5,0,11.5c3.5,6,7.4,7.7,10.9,10c7,4,14.8,6.6,22.3,8.6
	c5.1-0.6,11.1,1.7,16.8,1.2l-0.5,0.5c4.7,0.1,5.7,1.3,11.3,3.2c0.2-0.6,2.2,0.3,1.6-1c2.2-0.5,3.3,2.3,6.2,2.4
	c0,0.4,0.1-0.7,0.6-0.2c7.5,0.3-1.4,0.2,7.3,3.5c13.3,2.9,26.8,5.4,40.2,7.5c-0.8-0.1-1.1-1,0.2-0.8c1.1,2,4.6-0.2,6.9,0.7
	c-0.2,0.4-1.3,0.4-2,0.5c6.2,1.1,11.6-0.2,17.7-0.6c-0.1,0-0.1,0.1-0.2,0.1c5.6-1.8,12.6-3.1,15.8-5.9c-0.4,1.2,2.5-1,3.8-1.5
	c2.5-3.9,9.5-7.1,11.8-12.2l0.2,0.4C747.4,578.3,753.6,558.9,748.1,542.9z M406.3,337.4c-0.1,0-0.1-0.1-0.1-0.1
	c0.6,0,1.2,0.1,1.9,0.2C407.5,337.4,406.9,337.4,406.3,337.4z M413.5,339.6c-2.1-0.3-1.9-0.9-1.9-1.4c2.6,0.6,5.6,1.6,8.9,2.6
	C418,340.3,415.6,339.9,413.5,339.6z M479.9,341.6c-0.8-0.3-1.5-0.6-2.3-0.9C478.4,340.9,479.2,341.2,479.9,341.6z M469.8,338.1
	C469.8,338.1,469.8,338.1,469.8,338.1c-0.5-0.1-1-0.3-1.5-0.4C468.7,337.7,469.1,337.8,469.8,338.1z M483.3,377.6
	c-0.2-0.5,0.4-0.2,0.8-0.2c-5.2-3.7-8.6-9.9-13.7-11.1l-1.9-0.3c-0.9-1.2-0.4-1.7-1.1-2.6c-1.4-0.2-4.8-3.3-5.9-3
	c-0.3-0.7,0.5-0.3,0.7-0.5c-2.2-2-5.9-2.3-8-4l1,0.1c-4.9-4.3-11.3-7.7-17.9-10.3c0.9,0.2,1.9,0.5,2.8,0.7
	c19.3,7.8,35.8,21.2,50.5,37.4C488.1,381.5,485.7,379.4,483.3,377.6z M569.3,501.3l0.4,0.2c0.4,0.7,0.8,1.4,1.2,2.1
	C570.4,503.6,570,503.3,569.3,501.3z M582.7,557.8c0.7-1,1.1-2.1,1.1-3.2c1-0.9,1.3-5.1,1.2-6.5c0.8-0.7-0.1,1.2,0.4,1.6
	c0.4-0.7,0.8-1.4,1-2.2c0,0.6,0.1,1,0.2,1.1C586.3,552.6,585.1,555.8,582.7,557.8z M703.9,478c-0.1,0-0.2,0-0.3,0
	c0.4,0.4,0.9,0.7,1.4,1.2L703.9,478z M468.4,336.1c0.2,0,0.4,0,0.6,0C468.7,336,468.5,336,468.4,336.1z M456.4,332.6
	c-0.4,0.5,0.8,1.4,0.9,2C459.3,334.2,457,333.3,456.4,332.6z M310.6,400.8c-0.2-0.6-0.4-0.9-0.6-1.1
	C310.8,401.8,309.8,399,310.6,400.8z M314.5,409.3c-0.1-0.1-0.1-0.2-0.2-0.2C314.3,409.1,314.4,409.2,314.5,409.3z M311.6,402.8
	c-0.2-0.1,0,0.6-0.1,0.8C312.1,404.5,311.6,403.3,311.6,402.8z M345.2,401.7c4.8-3.6-1.5,1,2.2-2.5
	C345.9,400,345.4,400.9,345.2,401.7z M443,668c0.2,0,0.4-0.1,0.6-0.2c-0.9-0.1-1.8-0.2-2.8-0.2L443,668z M366.9,385.2
	c0.2-0.2,0.3-0.4,0.5-0.5C367.2,384.9,366.9,385,366.9,385.2z M488.3,530.7c0.4-4.6,0.2-11.8,0-16.3c-1-6.1-1.3-8.3-2.8-12.3
	c-0.3-2.3,0.3-3.7,0.6-4.6c-0.4-7.7,0-15.2-2.2-21.2l0.7-0.3c-1.7-6-3.7-14.6-4.3-21.6c-1-1.8-2.6-8.5-2.8-5.3c-0.7-2.6,1-2-0.4-4.5
	l1.6,2.3c-3-15.2-6.9-28.2-14.6-41.4c-1-4.5-7.4-12.6-13.2-19.2c-4.1-3.1-10.9-9.3-15.2-9.4l0.1-0.8c-6.1-3.2-15.3-5.8-24.3-6.2
	c-5.3,0-5.3,0.9-9.2,1.9l-0.3-0.7c-4,0.9-5.1,2.3-6.3,3.4c-0.7,0.2-1.3,0.3-2,0.5c-2,0.3-2.6,0.9-5.4,1.3c3-1.4,5.4-3,7.4-4.4
	c-5.6,0.8-10.1,4.6-13.6,4.7c-4.2,1.4-7.2,3.3-7.4,4.3c-0.3-0.1-2.6,0.8-0.9-0.5c-3,1.7-4.9,2.7-6.4,4.2c0.5-0.3,1.4-0.7,2.1-1.1
	c-1,1.2-3.2,2.8-2.9,3.5c-1.2,0.7-2.4,1.5-3.6,2.3c-0.6-0.4,2.7-3,0.4-2.1c-1.7,1.8-3.4,3.5-5,5.3c-13,9.6-24.9,22.1-34.3,36.1
	c-0.6-1.3-1.2-2.6-1.8-3.9c-0.8-1.8-1-1.6-1.8-3l0.1-0.2c-0.8-1.3-1.2-1.7-1.7-2.1c-0.1-0.2-0.2-0.4-0.3-0.6c-0.3-0.7-0.5-1-0.9-2
	c0.6,1.1,1.3,1.9,1.9,2.6c-0.8-1.9-2.2-3.5-2.5-4.8c-0.7-1.5-1.3-2.7-1.6-2.8c0-0.1-0.3-1,0.1-0.3c-0.6-1.1-0.9-1.9-1.4-2.5
	c0.1,0.2,0.2,0.5,0.4,0.8c-0.4-0.4-0.9-1.4-1.1-1.3c-0.2-0.5-0.5-1-0.7-1.5c0.1-0.1,0.9,1.2,0.6,0.4l-1.6-2.5
	c-0.8-1.7-1.6-3.5-2.4-5.3c-1.8-4.2-3-6.9-4.5-9.5c0,0,0,0,0,0c0.8,1.2,1.5,2.4,2.2,3.6c2.2,4.3,3.5,5.4,3.5,5.4
	c-2.1-3.4-2.6-6.9-4.9-10.1c10.8-14.9,20.6-30.2,29.7-45.9c0.4-0.1,0.7-0.1,1.1-0.2c-0.4,0.1-0.8,0.1-1.1,0.2
	c0.2-0.3,0.3-0.6,0.5-0.9c0.8-0.3,1.8-0.7,2.6-0.9l5-0.1c6-0.7,13.3-3.4,18.6-5.1c1,0,1.4,0.2,1.7,0.5c5.3-0.4,5.3-1.6,7.3-2.2
	l3.6,0.1l0.6-0.9c5.2-1.4,12.2-2.3,11.7-1c2-0.6,4-1.1,1.3-1c5.4-0.2,19.8-2.2,29.3-3.8c-4.5,0.2-4.2-0.2-4.7-0.9
	c1.2-1.5,2.2,0,5.9-1.2c0.2,0.5,4.5,0.4-0.1,1.3c12.9,0.1,30.6-3,46.7-4.1c3.2-0.5,2.2-0.6,3.8-1.1c10.3,0.4,22.6-1.9,33.7-2.1
	c-2.5-0.4,0.9-2.1,7-2.6c6.6-1.5,2.8,1.3,8.8,1.5c3-0.7,8.6-1.2,11-1.3l-0.2,0.2c3.6-0.8,9.4-1.6,13.8-1.4l-0.7,0.1
	c3.6-0.2,7.8,0.2,11.6-0.2c1.3-1.2,10.5-0.7,12.8-1.7c0.5,0.1-0.2,0.2,0.8,0.4l0.3-0.8c2.5,0.1,5.1,0.1,7.7,0
	c-1.7,0.5-2,0.9-4.2,1.3c8.3-0.1,2.7-0.9,7-1.9c5.7-1.5,5.5-0.8,8.5-1.3c-2.3,1.3-4.4,0.9-5.8,1.4c-3.3,1.3,3.6-0.4,3.9-0.1
	c1.3-0.5,1.6-1.2,5.9-3c4.3-1,10.6-9.5,10.2-8.3c1.6-3.8,2.3-7.6,2.2-10.2c-0.2,3.3-2.7,8.8-3.7,9.3c1.7-2.9,2.3-8.4,2.8-9.2
	l-0.1,2.4c0.5-2.4,0.6-10.8-0.2-6.4c0.5-2,0.4-4,0.5-6.1c-1.2-2.1-3-7.6-5.6-11.6c0.6-0.6,3.7,2.1-1-5.6c-1.7-1.9-3.5-3.7-5.4-5.4
	c-2.7-2.9-3.2-3.8-2.4-3.7c-9.1-10-11.5-7.6-19-14.8c4.2,1.9,1.4-0.6-2.4-3.6c-0.3,0-0.9,0.1-2.6-1c0.8,1.2,2.9,0.8,5.4,3.7
	c0.5,1.2-3.8-2.3-5.8-3.2c-6.5-8.4-30.6-11.9-45.6-8.7c1.2,1-6.6,1.8-9.5,3.1c0.5-1.6-8.1,2.6-12.1,3.3l2.6,0.5
	c-8.9,2.3-12.9,7.3-18.7,7.9c-4.8,1.6,1.2-1.6,3-2.6c-7.1,1.4-16.5,8.6-22.2,9.3c-0.3,0.7,1.9,0.8-3.4,3.6c-4.7,1.4-13.8,4-13,3.4
	c-3.6,1.5-4.4,2.2-8.7,3c0.3-0.5,2.1-1,3.3-1.6c-6.7,1.6-11.9,3.8-17.6,6c-3.9,0.1-15.4,3.9-23.2,5.5c-4,2.5-12.6,2.9-12.7,4.7
	c0.1-0.2-0.9-0.2-1.4-0.1c-2.7,1.2-4.8,2.9-8.4,3.9l0.9-1.4c0.4-1.2-5.6,0.8-9.2,1.7c1.1-2.4,2.1-4.8,3.1-7.2
	c4.2-10.2,8.2-20.4,12-30.7c4.8-1.2,4.8-1.7,5.3-2.4c1.9-0.6,3.7-1.2,5.5-1.8l-1.4,0.9c6.1-2.8,12.6-3.9,18.9-8.5
	c0.1,0,0.2-0.1,0.2-0.1c0.3,0.2-1,1.2-1.9,1.8c5.1-2.8,10.8-6.7,13.7-11.3c0.7-1,1.4-2,1.9-3.1c0.2,0.3-0.1,1.4-1,3.1
	c3-4.2,3.1-6.3,2.8-9.2c0.1-0.9,0.1-1.8,0-2.7c0-0.7-0.2-1.4-0.5-2.1c-0.6-1.7-2.7-3.7-2.3-3.5c-1.9-1.2-6.3-2.8-10.1-3.8
	c-1.9-0.5-3.9-1-5.9-1.4c-1.1-0.5-3.4-1.2-6.7-2c-0.8-0.1-1.6-0.2-2.5-0.3c0.9-2.7,1.8-5.5,2.7-8.2c7.1-4.1,15.1-7.1,22.8-10.2
	c15.2-6,30.5-11.7,45.1-18.5c1.5-0.6,2.9-1.3,4.4-1.9c4.6-0.7-7.5,4.2-3.8,3.6c-0.7-1,5.4-2.5,14.8-7.7l0.5,0
	c3.9-2.3,6.6-2.9,10.6-5.8l-0.3-0.2c4-3.2,10.5-5.4,11.6-8.5l3.5-2.3c2.1-4.8,6-6.8,5.8-13.9l0.2,0.8c1.8-10.3-8.1-16.3-9.1-19.2
	c-4-4.1-9.9-6.8-13.1-7.5c-0.8-0.3-1.7-0.6-2.6-0.9c0.2-0.2,0.8-0.3,1.5-0.3c-18.5-5.2-38.8-2.3-56.8,2.6c0.2-1,1-2.8-0.2-2.1
	c0.4-3.5,3.8-5.4,4.4-10.9c0.4-0.1-0.7,0-0.1-1c0.8-12.3,0.6,2.8,3.5-13.3c0.1-11.4,0.4-23.2-5.8-34.9
	c-5.8-11.2-16.4-18.5-26.6-22.9c1.3,0.5,1.6,1.5-0.5,0.7c-1.4-2.6-7.2-2.1-10.7-3.7c0.4-0.3,2.2,0,3.2,0.2c-9.4-3.4-17.7-3.4-26.7-5
	c-8.8,0-18.7-2.1-24.4-1.7c1.4-0.6-3.7-0.8-5.4-1.4c-1.5,1-8.3-1.4-14.3,1c-5.4,1.9-10.7,5.8-12.5,11l-0.2-0.5
	c-10.1,25.6-7.2,50.5-6.1,75.1c1.1,13.8-0.5,28.4-0.6,43.1c0.1,2.7,0.7,0.6,0.8,2.8c-0.4,3.7-0.6-0.1-1,1.3c0.1,1.8,0,3.8-0.2,5.9
	c-6.4,2.7-12.7,5.5-19,8.4c-15.6,6.4-31,13.3-44,19.8c-0.7,0.3-1.5,0.7-2.2,1c-5.8,2.6-11.9,5.3-17,8.2c-0.2-0.1-0.5-0.2-1.6,0.5
	c-1.9,1.2-4.1,2.9-5.8,4.8c-5.5,5.3-6.5,11.5,2.2,19.6c17.3,16,22.6,13.8,37.4,11.7c13.7-1.9,23.6-6.7,40.3-9.9
	c-0.1,0.6-0.2,1.1-0.3,1.5c-0.3,0.1-0.7,0.3-1,0.4c0.1-0.4,0.2-0.8,0.3-1.2l-0.4,1.2c-4,1.6-8.6,3.8-10.2,5.8
	c-1.8,1.7-2.9,3.2-3.6,4.7c0.1-0.2,0.1-0.4,0.2-0.6c-1.1,2.5-1.8,5-2.2,3.9c-0.1,2.2,0.3,4.2,0.4,6.2l-0.8-0.3
	c-0.6,9.2-6.8,14.8-12.9,22.6c1.1-0.7,2.2-1.5,3.3-2.3c-2.2,2.6-4.5,5.3-6.9,7.6c-1.2,1-2.4,1.9-3.6,2.8c-0.9,0.6-1.8,1.1-2.7,1.5
	c2.1-1.8,0.2-1-0.1-1.4c-1.1,0.8-2.2,1.9-3.7,2.6l1.2-1.9c-2.5,3.1-14.1,7.8-16.2,9.2l0.7-0.6c-8.4,3.6,1.8,0-3.7,2.8
	c-4.8,2.1-2.5-0.5-7.1,1.1c-8.2,4.1-22.2,11.8-32.2,14.6c-7.5,3.4-15.8,7.3-22.4,10.8c-6.8,2.9-0.2-1.5-6.9,2c0.6-0.8-0.6-0.9-1.4-1
	c-0.9,0.9-12.8,5.4-6.8,4.2c-10,3.9-21.2,9.2-31.2,13.8c3.4-1.5,3.8-2.8,0.9-1.9c-4.3,2.9-12.6,6.2-21.9,8.6c0.5,0.8,3.4,0,2.7,1.1
	c-1.3,0.5-3.4,1.6-5.7,2.2c-1.6-0.5-1.7-2.3-10,0.9c1.6-2.5,14.2-4.6,9.9-4.9c3.5-2.3,17.8-6.6,21-7.3c6.2-3.9-5.4,1.9-4.6,0.2
	c-6.2,2.3-8.9,3.5-19.3,7c0.1,0.7,3.6-0.4-1,1.7c-8.8,4.4-11.8,3.8-14.2,4.8c1.2-0.8,3.1-1.7,4.4-2.5c-6.3,2.4-8,4.4-13.8,8.2
	c-2.7-0.5,9.4-6.4,11.4-8.1c-1.8,0.3-3.5,0.8-5.2,1.3c-9.8,5.9-1.7,2.1-11.9,9.3l0.8-1.5c-2.1,1.8-3.9,4.1-5.4,6.4
	c0.5,0.6,2-0.8,7-5.3c-1.9,4.2-5.4,3.9-9.3,14.2c-0.3,3.6,1.4-4.4,2.6-4c1.2-0.6-2.2,5.9-2.2,11c-0.4,8.1-1.1,4.1-1.7,7.5
	c-0.4-1.5-0.3-8,0.3-7.3c0.7-10.8-2.8,4.5-2.2-3.1c-1.3,8.2-0.3,8.3,0.6,11.9c0-1.5,1.2,1.4,1.2-0.3c4.9,12.4-0.4,8.8,4.2,20.5
	c0.4-2.8,8.7,13.6,6.7,4.9c1.5,2.4,3.3,5.4,4.8,8.1c-2.8-2.1,2.3,5-1.8,0.8c0.9,1.2,1.7,2.6,2.6,3.7c-1.7-1.5-3.4-3.1-4.9-5.1
	c1.9,5.2,6.7,12,8.2,14.3c4.9,4.3-0.7-2.1,4.8,3c-2.3-1.4,0.7,2.2,3.2,4.4c-4.6-4.8,0.9-1.2,4.4,1.2c5.1,4,9.1,7.7,8.1,7.4
	c-1.6-0.7-3.2-1.5-4.7-2.3c2.8,1.5,0.8,1.3,4.8,3.5c1.6,0.2,4.7,1,6.6,1c3.9,1.7,6.5,3.5,8,3.8c-2.3-0.5-4.5-1.2-6.7-2
	c8.6,3.3,1,2.7,10.6,5.1c0.9-0.1,1.8-0.1,2.7-0.3c2,0.4,3,0.9,1,1c1.9-0.2,7-0.1,9.3-0.3l0.6,0.6c3.9-0.5,8.5-2.2,13.4-2.2
	c-4-0.7-4.7,1.1-11.4,0.9c-4.1-0.8,6.4-1.3,7.8-2c-0.1,1.7,9.9-1.8,14-4c2.8-0.5,4.9-1.5,6.5-2l1.1-1.7c2.5,0.8,7.5-5.6,11.4-8.1
	c-1.3,1.8-0.8,2.4,2,0.5c-4.5,1.6,4.7-5.9,3.1-5.8c7.1-4.8-0.5,2.7,2.2,1.9c2.6-3.5,8-5.1,9.4-7.9c-5.2,3.3,0.2-1.3,0.9-2.6
	c6.4-4.4-0.7,1.2,4.1-1.5c2.6-2,5.5-5.3,1.1-2.8c3.9-2.3,7.4-6.3,12.2-8.2c2.2-0.4-7.8,5.4-5,4.4c7.6-4.7,4.8-4.9,8.6-8.1
	c-1.2,2.2-2.1,3.9-3,6.5c-1.4,2.2-2.8,3-3.6,3.7c-5.2,6.8-11.1,12.6-14.3,18.8l-0.8-0.3c-3.7,5.7-9.3,14-15.2,19
	c-0.9,2-5.9,7.9-2.9,5.9c-1.9,2.4-2.2,0.6-3.8,3.4l1.2-2.8c-12.3,12.2-22.3,22.8-34.6,34.1c-4.5,2.3-11.9,10.6-19.8,16
	c-3.9,4.1-12,9.3-14.3,13.1l-0.7-0.4c-5.9,4.5-13.9,10.6-22.1,15.9c-4.8,3.1-4.1,4-7.6,6.9l-0.7-0.5c-3.6,2.9-4.2,4.6-5.2,6.2
	c-0.5,0.3-1,0.7-1.5,1c-2.3,1.2-2.7,1.9-5.7,3.3c2.9-2.3,5.1-4.7,6.5-6.9c-5.2,3-9.3,7.9-13.1,8.7c-4.3,2.3-7.5,4.4-7.7,5.5
	c-0.4-0.1-2.8,1-1-0.5c-3.2,1.9-5.4,3-7.2,4.5c0.6-0.3,1.6-0.7,2.3-1.1c-1.1,1.4-3.9,2.9-3.6,3.6c-1.4,0.7-2.9,1.4-4.3,2.1
	c-0.6-0.5,3.4-2.9,0.8-2.2c-2.3,1.6-4.5,3.4-6.8,5c-5.5,2.5-10.9,4.7-16.4,6.6c-17.6,6.1,3,8.3,12.7,8.3c2.9,0,5.9-0.1,8.9-0.4
	c-6.7,0.6-13.3,1-19.2,1.1c-3.7-0.4-6.5-0.2-9.8-1.8c-0.8-0.5-2.2-1.8-1.9-3.9c0.2-1.3,1.2-2.5,1.5-2.8c1-1.1,1.8-1.8,2.5-2.3
	c2.7-2.2,3.6-3.3,3.6-3.3c-2.3,1-4.2,1.5-7.3,3.8c-0.5,0.3-2,1.9-2.6,3.7c-0.8,3.5,0.8,5.7,2.2,6.8c2,1.4,3.5,1.8,4.7,2.2
	c5,1.3,9.1,1.4,13.5,1.7c8.7,0.3,17.1-0.4,25.4-1.6c16.6-2.5,32.6-6.8,49-12.5c10.8-4.6,24.4-11.5,34.1-15.9
	c39.5-20.4,80.3-43.8,110.6-79.4c-1.9,1.5-0.6-0.8,0.8-2.6l0.7-0.2l1.8-3.2c2.3-2.6,2-0.9,0.2,1.4c11.1-12.2,20.2-23.9,29.9-36.3
	c-3.3,9.1-6.1,18.3-8.2,27.9c0.3-0.8,0.2,0.1,0.1,0.9l-0.1,0.2l-0.1,1.2c-0.2,1.1-0.4,0.6-0.2-0.4c-1.5,6-2.4,11.4-3.6,17.2
	c0.2,0.4-0.5,3.1-0.3,3.3c-0.1,0.3-0.1,0-0.1-0.2c-0.6,4.1-0.7,4.4-1.6,8c-2.9,15.9-4.7,31.3-6.7,47c-1.9,15.7-4.1,31.9-0.9,48.4
	c0.9,2.4,1.5,5.9,2.8,8.7l-0.2-0.1c1.1,2.4,0.9,3.1,2.2,6.2c0.2,0,0.6,1.1,0.6,0.6c0.6,0.9,0.5,2,1.5,3.4c0,0.1,0.1-0.1,0.2,0.2
	c2.5,3.5-0.7-0.5,2.1,4.1c4.5,6.2,10.9,10.9,17.4,14.1c-0.4-0.2-0.5-0.5,0.2-0.2c0.5,0.7,2.3,0.9,3.4,1.6c-0.1,0.1-0.7-0.1-1-0.2
	c3.1,1.2,5.7,2.1,8.9,2.6c-0.1,0-0.2,0-0.3,0c3,0.4,6.7,0.7,8.8,0.3c-0.5,0.3,1.4-0.1,2-0.2c2.1-0.8,5.9-1.6,8-3.4l0,0.1
	c7.1-4.5,12.1-12.4,14.9-20.2c1.7-4.4,3.7-9.3,4.7-14.3c0.2-0.9-0.1-0.2,0-1c0.3-1.2,0.2,0,0.3-0.4c0-0.4,0.1-0.7,0.2-1.1
	c3.7,10.3,8.5,20.4,14.9,29.4c7.1,10.5,15.9,22.3,27.5,30c2.2,1.3,0.9-0.3,2.6,0.8c2.7,2.1-0.4,0.5,0.5,1.5c6,3.3,12.9,9,20.5,12.9
	c1,0.2,3.2,1.2,2.7,0.4c7.8,5.6,20.6,8.5,29.9,11.7c-2.9-2.6,5.8,0.4,9.3,0.3c1.7,0.3,2,0.7,1.6,1c7.2,0.6,11.5,1.9,21.8-2
	c4.2-2.7,4.5-4.3,8.3-8.2c3.3-1.8,6.1-9.2,8.1-13.5c-1.4,0.7,0-5.2,1.6-9.6l1.1,1.8c3.3-14.8,6.8-35.8,5.1-52.9l0.9-1.2
	C489.5,564.5,490.6,547.5,488.3,530.7z M384.1,239.6c0.2-0.1,0.4-0.2,0.6-0.3c0.2-0.1,0.3-0.1,0.5-0.2c-0.1,0.3,0.3,0.4-1.3,1.1
	C383.9,240.1,384,239.9,384.1,239.6z M63.7,540.3c-1.4,0.8-2.7,1.6-4.1,2.4C60.9,541.8,62.3,540.9,63.7,540.3z M48.4,549
	c0,0-0.1,0.1-0.1,0.1c-0.8,0.4-1.5,0.8-2.3,1.2C46.5,549.9,47.1,549.6,48.4,549z M45.8,570c9.6-1.3,19.6-3.6,29.6-6.7
	C66.1,566.7,55.9,568.7,45.8,570z M85.8,560.7c-3,1.3-3.3,0.8-3.6,0.4c4.3-1.4,8.6-3,12.9-4.7C91.8,557.9,88.6,559.3,85.8,560.7z
	 M201,498c-0.8,0.3-0.1-0.5,0.2-0.9c-7.2,7.6-17.9,11.2-22.8,17.5l-1.8,2.3c-2.3,0.9-2.5,0.3-4.3,0.9c-1.4,1.7-8,5-8.5,6.4
	c-1.1,0.2,0.1-0.7-0.1-0.9c-4.2,2.2-8.2,6.3-12.3,8.2l1-1.1c-8,3.9-17,8-26,12c18.8-9.3,36.3-19.6,50.5-28.5
	c12.2-7.5,23.5-16,34.2-25.2C207.7,491.9,204.3,495,201,498z M258.3,545c-0.2,1.9-0.4,3.7-0.6,5.6c0-0.6-0.1-1.1-0.1-1.6
	c0.1-0.7,0.2-3.2,0.3-4c0.2-0.4-0.1,0.7,0,0.9l0.4-1.2C258.3,544.7,258.3,544.9,258.3,545z M261.4,520.1c0,0,0-0.1,0-0.1
	C261.4,520,261.4,520,261.4,520.1C261.4,520,261.4,520.1,261.4,520.1z M248.5,265.8c0.8-0.3,1.5-0.6,2.2-0.9
	c-0.9,0.5-1.8,0.9-2.6,1.3C248.2,266.1,248.4,265.9,248.5,265.8z M268.5,301.4c-3.5,0.9-3.6,0-9.5,0.9c-0.1-0.1-0.5,0.5,0,0.7
	c-10.4,0.6-22.9,4.9-35,6.1c1-0.2,2.3-0.9,3.2-1.4c-9.3,2-18.2,3.6-26.6,5.3c0.9-0.5,0.6-0.8,2.8-1.2c-3.2,0.3-6.7,0.5-9.7,0.7
	c1-1.1,2.1-2.2,3.1-2.9l0.2,0.1c5.2-3.9,5.3-4.4,11-7.7c3.7-1.5-2.9,1.9-1.2,1.6c1.9,0.3,13.7-6.1,15.1-6.4c1.3-0.9,3.3-2,2.9-2.3
	c4.6-2.4,2.5-0.2,5.8-1.6c3.9-2.4,7.8-4.9,11.8-7.2c0.2-0.1,0.4-0.1,0.6-0.2c0.5,0.3,4.4-0.5,0.8,1.3c6.4-2.5,10.8-4.8,14.8-6.9
	c7.8-2.6,15.3-5,22.6-7.3c-0.7,0.3-0.6,0.5-0.2,0.6C277.2,282.3,272.6,291.9,268.5,301.4z M276.3,440.1c0.3-1.3,0.7-2.6,0.9-3.8
	c0.1-0.2,0.1,0.1,0.1,0.3c0.8-3.4,2.3-6.7,2.7-9.3l0.1-0.9c0.4-0.7,0.5-0.6,0.8-1.2c0.1-0.6,0.8-2.4,0.9-3.2c0-0.1,0.1-0.1,0.1-0.2
	c0,0.1,0,0.1,0,0.1c0-0.1,0.1-0.2,0.1-0.3c0.1-0.1,0.2-0.2,0.2-0.3c-0.1-0.5,0.4-1.3,1-2.3C280.7,425.7,278.4,432.8,276.3,440.1z
	 M286.8,231.7c-0.1,0.2-0.2,0.4-0.3,0.6c-0.1-0.1-0.2-0.1-0.4,0c-0.5,1.4-0.7,2.2-1.1,3.1c-0.5,0.9-1.1,1.9-1.7,2.8
	c0.4-1.7,4.5-9.7,4.5-12.2c0.1-0.3,0.2-0.4,0.3-0.5C288.1,227.5,287.9,229.5,286.8,231.7z M314.4,410.1c-0.1-0.2-0.2-0.5-0.4-0.8
	C314.1,409.5,314.2,409.7,314.4,410.1C314.4,410.1,314.4,410.1,314.4,410.1z M383.6,378.4c-0.9,0.4-1.9,0.8-2.8,1.2
	C381.7,379.1,382.6,378.7,383.6,378.4z M370,385C370,385,370,385,370,385c-0.6,0.4-1.2,0.7-1.8,1.1C368.6,385.8,369.1,385.5,370,385
	z M373.1,550.5c-0.4,2.4-0.9,4.9-1.4,7.3l-0.1,0.3c0,0,0,0,0-0.1c-13.1-13.7-25.3-33.8-16.3-44.6c2.9-3.8,6-7.4,9.2-10.2
	c3.1-3,6.6-3.7,5.7-3.4c1.7-0.2,5.3,12.3,4.9,21.1C375.4,530.7,374.6,540.7,373.1,550.5z M368.9,492.4l0.6-0.4
	c1.2-0.1,2.2,0.1,3.2,0.4C372.3,492.7,371.4,493,368.9,492.4z M377.5,565.3c-0.3-0.3-0.6-0.6-0.9-0.9c0.2-0.7,0.3-1.4,0.5-2.1
	c0.4-2.1,0.8-4.1,0.9-5.2c0.9-0.9-0.4,1.8,0,2.4l1.5-3c-0.1,0.8-0.2,1.3-0.2,1.6C378.8,560.5,378.2,563,377.5,565.3z M379,566.7
	c-0.3-0.3-0.6-0.5-0.9-0.8c1.3-0.4,2.7-1.2,4.2-2.3C381.4,564.8,380.3,565.9,379,566.7z M415.6,579.7l-0.4,0.4l0.1,3.1
	c-0.5,2.8-1.2,1.4-0.9-1c-0.3,1.8-0.7,3.4-1.2,5.1c-0.6-0.2-1.2-0.4-1.8-0.7c-6.3-2.5-12.4-6.2-18.4-10.4c-1.5,0.4-6.3-4.5-7.4-3.9
	c-0.4-0.6,0.1-0.3,0.6-0.2c-0.7-0.5-1.2-0.9-1.8-1.3c5.3-3,7.6-6.4,10.9-9.6c3.9-4,6.8-8.3,10.3-11.1c4.4-4.1,7.9-8.7,11.1-13.3
	c0.9-1.4,1.8-2.8,2.6-4.2c-1.5,15.2-2.5,30.2-4.6,44.7C415.5,575.5,415.8,577.7,415.6,579.7z M417.8,465.1c-0.5,0.4-3-1.9-2.5-0.3
	c-3-1.1-3.8-4.5-8.1-6.2c0-0.4-0.2,0.6-0.9-0.1c-11-3.5,2.4,0-10.8-6.3c-8.9-3.7-22.4-4.3-32-0.4c-10.2,3.6-18.7,9.9-25.8,16.8
	c0.8-0.9,1.9-0.7,0.5,0.7c-1,0.1-1.8,0.9-2.5,1.9c-0.2-1.4-0.4-2.9-0.4-4.2c-0.3-0.7-0.6-3.3-0.7-2.1c-0.2-1,0.2-0.7-0.1-1.7l0.4,1
	c-0.6-5.9-1.8-10.8-3.5-16.3c-0.2-1.7-1.5-5.3-2.5-8.3c-0.8-1.7-1.7-4.8-2.7-6c18.3-20.6,37.7-36.8,68.3-33.3
	c9.5,1.2,16.4,4.5,21.6,9.3c-12.7-10.6-33.8-12.4-46.8-6c-10.8,4.4-12.5,9.5-12.7,10c22.5-15.6,59.7-11.1,63.2,16.4
	c2.8,8.3,3.9,21.9,4.4,31.1c0.4,4.3,0.7,8.5,0.9,12.7C423.3,471.2,421.5,468.9,417.8,465.1z M421,417.3c-1.8-2.4-1.3-2.7-1-3.1
	c2.7,3.8,4.7,8.2,6.2,13.1C424.9,423.5,423.2,420.1,421,417.3z M426.5,544.9c0.2-4.6,0.2-9.1,0.2-13.3c0.3-0.7,0.4,0.2,0.6,0.7
	c-0.4-7.2,1.7-14.4,2-20.5c0.2-0.7,0.5-1.3,0.7-2C428.3,519.7,427.5,532.1,426.5,544.9z M431.8,491.7c-0.1-2.9-0.6-5.8-1.8-8.4
	c-0.2-1.4-0.3-2.9-0.2-4.2l0.5,1.2c0.2-7.4,0.4-16,0.2-24.6C431.5,467.6,432.3,479.8,431.8,491.7z M351.9,395.1
	c0.1,0.6,1.9,0,2.5,0.3C356.1,393,353.2,394.9,351.9,395.1z"/>
</svg>
