<?xml version="1.0" encoding="utf-8"?>
<!-- Generator: Adobe Illustrator 24.0.1, SVG Export Plug-In . SVG Version: 6.00 Build 0)  -->
<svg version="1.1" id="Capa_1" xmlns="http://www.w3.org/2000/svg" xmlns:xlink="http://www.w3.org/1999/xlink" x="0px" y="0px"
	 viewBox="0 0 60 60" style="enable-background:new 0 0 60 60;" xml:space="preserve">
<style type="text/css">
	.st0{fill:#FFFFFF;}
</style>
<path class="st0" d="M48,8H12c-2.2,0-4,1.8-4,4v36c0,2.2,1.8,4,4,4h36c2.2,0,4-1.8,4-4V12C52,9.8,50.2,8,48,8z M21.9,44H16V25h5.9
	V44z M18.9,22.3c-1.9,0-3.4-1.5-3.4-3.4s1.5-3.4,3.4-3.4c1.9,0,3.4,1.5,3.4,3.4C22.3,20.8,20.8,22.3,18.9,22.3z M44,44h-5.9v-9.2
	c0-2.2,0-5-3.1-5c-3.1,0-3.5,2.4-3.5,4.9V44h-5.9V25h5.7v2.6h0.1c0.8-1.5,2.7-3.1,5.6-3.1c6,0,7.1,3.9,7.1,9C44,33.6,44,44,44,44z"
	/>
</svg>
