<?xml version="1.0" encoding="utf-8"?>
<!-- Generator: Adobe Illustrator 24.0.1, SVG Export Plug-In . SVG Version: 6.00 Build 0)  -->
<svg version="1.1" id="Capa_1" xmlns="http://www.w3.org/2000/svg" xmlns:xlink="http://www.w3.org/1999/xlink" x="0px" y="0px"
	 viewBox="0 0 800 800" style="enable-background:new 0 0 800 800;" xml:space="preserve">
<style type="text/css">
	.st0{fill:#FFFFFF;}
</style>
<g>
	<path class="st0" d="M400,0C246.9,0,122.4,124.6,122.4,277.6c0,147.4,251.9,491.6,262.6,506.2l10,13.6c1.2,1.6,3,2.5,5,2.5
		c2,0,3.8-0.9,5-2.5l10-13.6c10.7-14.6,262.6-358.9,262.6-506.2C677.6,124.6,553.1,0,400,0z M400,178.2c54.8,0,99.4,44.6,99.4,99.4
		c0,54.8-44.6,99.4-99.4,99.4c-54.8,0-99.4-44.6-99.4-99.4C300.5,222.8,345.2,178.2,400,178.2z"/>
</g>
</svg>
