<?xml version="1.0" encoding="utf-8"?>
<!-- Generator: Adobe Illustrator 24.0.1, SVG Export Plug-In . SVG Version: 6.00 Build 0)  -->
<svg version="1.1" id="Capa_1" xmlns:sketch="http://www.bohemiancoding.com/sketch/ns"
	 xmlns="http://www.w3.org/2000/svg" xmlns:xlink="http://www.w3.org/1999/xlink" x="0px" y="0px" viewBox="0 0 800 800"
	 style="enable-background:new 0 0 800 800;" xml:space="preserve">
<style type="text/css">
	.st0{fill-rule:evenodd;clip-rule:evenodd;fill:#FFFFFF;}
</style>
<title>phone</title>
<desc>Created with Sketch Beta.</desc>
<g id="Page-1" sketch:type="MSPage">
	<g id="Icon-Set-Filled" transform="translate(-258.000000, -309.000000)" sketch:type="MSLayerGroup">
		<path id="phone" sketch:type="MSShapeGroup" class="st0" d="M1034.8,419.8l-71.9-71.8c-19.9-19.8-52.1-19.8-72,0L783,491.6
			c-16.5,24.3-19.9,51.9,0,71.7l44,43.9c-32.6,43.8-71.8,91.5-116,135.5c-49.9,49.8-105.4,95-155.3,132.1l-42.6-42.4
			c-19.9-19.8-47.6-16.5-72,0L297.4,940c-24.1,16.6-19.9,51.9,0,71.7l71.9,71.7c39.7,39.7,91.4,27,143.9,0
			c0,0,158.8-88.9,294.8-224.5c127.9-127.5,226.8-295.7,226.8-295.7C1055.5,506.8,1074.6,459.5,1034.8,419.8"/>
	</g>
</g>
</svg>
