<?xml version="1.0" encoding="utf-8"?>
<!-- Generator: Adobe Illustrator 24.0.1, SVG Export Plug-In . SVG Version: 6.00 Build 0)  -->
<svg version="1.1" id="Capa_1" xmlns="http://www.w3.org/2000/svg" xmlns:xlink="http://www.w3.org/1999/xlink" x="0px" y="0px"
	 viewBox="0 0 800 800" style="enable-background:new 0 0 800 800;" xml:space="preserve">
<style type="text/css">
	.st0{fill:#FFFFFF;}
</style>
<g>
	<path class="st0" d="M434.5,466.9c0.1,18.4-14.8,33.4-33.2,33.4c-18.4,0.1-33.4-14.8-33.4-33.2L434.5,466.9z"/>
	<path class="st0" d="M324,224.1l43-43.2l0.9,286.2l66.7-0.2l-0.9-286.2l43.2,43c13.1,13,34.2,12.9,47.1-0.1
		c13-13.1,12.9-34.2-0.1-47.1l-124-123.2l-123.2,124L324,224.1z"/>
	<path class="st0" d="M276.7,177.1c-13,13.1-12.9,34.2,0.1,47.1c13.1,13,34.2,12.9,47.1-0.1L276.7,177.1z"/>
	<path class="st0" d="M133.3,400c0-36.8,29.8-66.7,66.7-66.7c18.4,0,33.3-14.9,33.3-33.3c0-18.4-14.9-33.3-33.3-33.3
		c-73.6,0-133.3,59.7-133.3,133.3v200c0,73.6,59.7,133.3,133.3,133.3h366.7c92,0,166.7-74.6,166.7-166.7V400
		c0-73.6-59.7-133.3-133.3-133.3c-18.4,0-33.3,14.9-33.3,33.3c0,18.4,14.9,33.3,33.3,33.3c36.8,0,66.7,29.8,66.7,66.7v166.7
		c0,55.2-44.8,100-100,100H200c-36.8,0-66.7-29.8-66.7-66.7V400z"/>
</g>
</svg>
